<svg width="72" height="72" viewBox="0 0 72 72" fill="none" xmlns="http://www.w3.org/2000/svg">
<circle cx="36" cy="36" r="36" fill="black"/>
<path d="M19.7969 29.625H21.2578L24.9844 38.8984L28.7031 29.625H30.1719L25.5469 41H24.4062L19.7969 29.625ZM19.3203 29.625H20.6094L20.8203 36.5625V41H19.3203V29.625ZM29.3516 29.625H30.6406V41H29.1406V36.5625L29.3516 29.625ZM34.7969 29.625V41H33.2891V29.625H34.7969ZM41.6641 29.625L36.9375 34.9297L34.2812 37.6875L34.0312 36.0781L36.0312 33.875L39.8516 29.625H41.6641ZM40.2109 41L36 35.4531L36.8984 34.2578L42.0078 41H40.2109ZM45.625 35.5703V36.7578H41.8125V35.5703H45.625ZM48.6094 29V41H47.1562V29H48.6094Z" fill="white"/>
</svg>
